<?xml version="1.0" standalone="no"?>
<!DOCTYPE svg PUBLIC "-//W3C//DTD SVG 20010904//EN"
 "http://www.w3.org/TR/2001/REC-SVG-20010904/DTD/svg10.dtd">
<svg version="1.0" xmlns="http://www.w3.org/2000/svg"
 width="512.000000pt" height="512.000000pt" viewBox="0 0 512.000000 512.000000"
 preserveAspectRatio="xMidYMid meet">
<metadata>
Created by potrace 1.14, written by Peter Selinger 2001-2017
</metadata>
<g transform="translate(0.000000,512.000000) scale(0.100000,-0.100000)"
fill="#000000" stroke="none">
<path d="M2390 5112 c-48 -3 -244 -28 -295 -37 -144 -27 -465 -123 -490 -146
-5 -5 -15 -9 -22 -9 -7 0 -66 -26 -130 -57 -659 -318 -1163 -919 -1351 -1608
-76 -279 -97 -444 -96 -735 1 -180 9 -255 45 -450 158 -847 764 -1578 1569
-1895 152 -60 374 -123 485 -139 76 -11 120 -18 140 -24 37 -9 539 -10 610 -1
130 17 150 20 285 51 872 197 1578 846 1860 1709 32 95 73 261 84 334 13 81
16 101 22 135 13 70 12 533 -1 625 -20 145 -25 175 -47 265 -11 47 -21 92 -23
100 -22 100 -124 361 -193 495 -68 132 -199 335 -271 421 -14 17 -42 51 -61
75 -113 140 -348 347 -537 472 -246 163 -601 315 -848 363 -11 2 -42 8 -70 14
-71 14 -105 19 -245 36 -57 7 -342 11 -420 6z"/>
</g>
</svg>
