<?xml version="1.0" encoding="UTF-8"?>
<!DOCTYPE svg PUBLIC "-//W3C//DTD SVG 1.1//EN" "http://www.w3.org/Graphics/SVG/1.1/DTD/svg11.dtd">
<!-- Creator: CorelDRAW 2021 (64 Bit) -->
<svg xmlns="http://www.w3.org/2000/svg" xml:space="preserve" width="19.374mm" height="14.807mm" version="1.1" style="shape-rendering:geometricPrecision; text-rendering:geometricPrecision; image-rendering:optimizeQuality; fill-rule:evenodd; clip-rule:evenodd"
viewBox="0 0 1937.4 1480.7"
 xmlns:xlink="http://www.w3.org/1999/xlink"
 xmlns:xodm="http://www.corel.com/coreldraw/odm/2003">
 <defs>
  <style type="text/css">
   <![CDATA[
    .str0 {stroke:#0083C1;stroke-width:7.62;stroke-miterlimit:22.9256}
    .fil3 {fill:#F58634}
    .fil8 {fill:#F37639}
    .fil5 {fill:#EE3737}
    .fil2 {fill:#ED3237}
    .fil0 {fill:#0083C1}
    .fil1 {fill:url(#id0)}
    .fil7 {fill:url(#id1)}
    .fil6 {fill:url(#id2)}
    .fil4 {fill:url(#id3)}
   ]]>
  </style>
  <linearGradient id="id0" gradientUnits="userSpaceOnUse" x1="169.01" y1="786.12" x2="145.76" y2="582.71">
   <stop offset="0" style="stop-opacity:1; stop-color:#F58634"/>
   <stop offset="1" style="stop-opacity:1; stop-color:#ED3237"/>
  </linearGradient>
  <linearGradient id="id1" gradientUnits="userSpaceOnUse" x1="721.72" y1="1260.36" x2="721.72" y2="966.17">
   <stop offset="0" style="stop-opacity:1; stop-color:#ED3237"/>
   <stop offset="1" style="stop-opacity:1; stop-color:#F58634"/>
  </linearGradient>
  <linearGradient id="id2" gradientUnits="userSpaceOnUse" x1="1645.81" y1="1388.42" x2="1590.43" y2="712.97">
   <stop offset="0" style="stop-opacity:1; stop-color:#00559E"/>
   <stop offset="1" style="stop-opacity:1; stop-color:#0098DA"/>
  </linearGradient>
  <linearGradient id="id3" gradientUnits="userSpaceOnUse" xlink:href="#id2" x1="1127.38" y1="1113.2" x2="1011.7" y2="101.34">
  </linearGradient>
 </defs>
 <g id="Camada_x0020_1">
  <metadata id="CorelCorpID_0Corel-Layer"/>
  <g id="_2634986097824">
   <g>
    <path class="fil0 str0" d="M202.65 598.88l92.39 78.29c9.64,8.17 12.15,25.13 1.78,32.31l-164.63 113.97c-10.36,7.17 -23.08,10.06 -32.62,1.79l-88.54 -76.69c-9.55,-8.27 -16.19,-28.45 -5.74,-35.57l164.73 -112.31c10.45,-7.12 22.99,-9.96 32.63,-1.79z"/>
    <path class="fil1" d="M209.01 571.18l92.4 78.29c9.64,8.17 12.15,25.13 1.78,32.31l-164.63 113.97c-10.37,7.17 -23.08,10.06 -32.63,1.79l-88.54 -76.69c-9.54,-8.27 -16.18,-28.45 -5.74,-35.57l164.74 -112.31c10.45,-7.12 22.98,-9.96 32.62,-1.79z"/>
   </g>
   <g>
    <path class="fil2" d="M562.14 427.21l140.09 112.67c7.71,6.2 5.08,20.34 -4.39,27.96l-152.32 122.72c-23.41,21.98 -21.04,44.18 -0.75,66.54l83.27 66.96c10.99,1.02 21.98,1.86 32.97,2.51 60.21,3.61 120.43,1.91 180.67,-3.78l210.89 -186.26c11.36,-19.58 7.49,-45.32 -3.1,-62.9l-151.53 -108.49c-10.81,-7.75 -16.08,-28.71 -6.04,-37.45l126.22 -109.92c18.58,-18.36 17.86,-50.75 -4.09,-64.19l-140.87 -77.98c-10.5,-5.82 -15.54,-21.71 -5.84,-28.32l178.48 -121.59c9.71,-6.62 22.6,-7.13 33.2,-1.43l125.03 67.22c34.47,18.53 37.01,20.15 76.75,23.73 51.82,4.66 109.49,4.12 161.74,-0.35 19.93,-1.7 25.01,0.05 41.7,-10.73l62.4 -40.32c6.02,-3.89 14,-4.19 20.57,-0.84l119.4 60.87c6.57,3.36 6.83,11 1.12,15.12l-79.91 57.59c-0.74,5.96 -1.28,11.94 -1.63,17.94l182.57 109.18c11.02,6.59 13.5,21.63 5.82,29.73l-141.9 149.74c-7.68,8.11 -20.49,8.37 -31.43,1.65l-205.01 -125.94c-10.94,-6.72 -18.28,-25.1 -10.08,-32.74l133.05 -123.99c-0.41,-6.31 -0.97,-12.6 -1.7,-18.87l-45.95 -24.13c-63.11,-5.6 -134.17,-4.71 -201.13,-1.18 -43,2.27 -44.41,-3.42 -78.21,22.26l-47.15 35.83c-25.37,19.34 -18.23,56.02 3.87,68.9l141.3 97.1c10.97,7.54 11.52,24.86 1.87,34l-131.77 124.83c-16.76,24.89 -16.45,48.56 2.93,69.53l271.27 182.65c17.08,11.5 17.65,38.27 2.89,52.61l-272.73 264.94c-14.76,14.34 -36.37,14.87 -53.13,2.92l-279.09 -198.87c-81.18,-7.17 -152.46,-3.06 -238.76,3.22l-167.61 134.91c-11.94,9.61 -26.48,9.93 -36.06,1.95l-179.65 -149.53c-9.58,-7.98 -10.38,-29.8 1.96,-38.87l200.21 -147.19c19.21,-27.58 18.9,-54.97 -2.08,-82.17l-78.3 -65.18c-7.59,-6.32 -8.22,-23.61 1.55,-30.8l179.85 -132.22c9.78,-7.18 20.86,-7.74 28.57,-1.55zm1065.19 -138.94l65.53 39.19c5.25,3.13 6.43,10.29 2.77,14.15l-67.54 71.27c-3.65,3.86 -9.75,3.99 -14.96,0.79l-97.58 -59.95c-5.2,-3.2 -8.7,-11.94 -4.8,-15.58l40.82 -38.03c24.47,-22.82 22.11,-20.23 18.93,-54.53l-4.25 -45.97c-2.11,-22.78 3.07,-22.5 -16.15,-32.61 -19.21,-10.1 -19.76,-11.82 -41.51,-11.79l-310.91 0.49c-33.13,0.06 -30.74,-6.29 -52.75,17.21l-31.83 33.99c-18.26,13.9 -12.23,24.79 -10.22,49.21l3.61 43.64c2.45,29.75 -1.96,36.17 22.12,52.71l93.81 64.46c6.32,4.35 6.58,14.27 1.07,19.62l-65.57 63.69c-38.36,37.26 -32.42,36.52 -28.97,89.94l3.9 60.45c5.05,78.03 10.8,64.39 73.62,107.55l112.74 77.48c9.79,6.72 9.64,22.51 1.12,30.78l-157.33 152.83c-8.52,8.28 -20.95,8.55 -30.65,1.69l-130.79 -92.55c-26.32,-18.62 -33.47,-36.21 -107.85,-37.83l-296.83 0c-63.89,0 -42.75,-8.98 -84.88,24.97l-63.84 51.42c-4.78,3.86 -10.43,3.76 -14.45,0.79l-82.05 -60.72c-4.01,-2.97 -4.19,-11.99 0.79,-15.58l70.19 -50.56c36.95,-27.16 29.48,-8.91 37.39,-54l17.16 -97.86c7.55,-43.08 16.72,-50 -18.71,-79.5l-33 -27.47c-4.38,-3.64 -4.74,-13.61 0.9,-17.76l103.75 -76.27c5.64,-4.15 12.03,-4.47 16.48,-0.9l80.81 64.99c4.45,3.58 2.98,11.81 -2.53,16.14l-75.47 59.31c-33.3,26.18 -30.3,16.72 -38.64,58.47l-19.52 97.71c-5,35.8 -9.01,36.68 16.88,58.76 28.03,23.88 29.8,22.25 66.56,22.25l316.59 0c63.87,0 57.03,-8.41 104.25,-49.53l64.13 -55.85c54.53,-54.06 36.17,-45.42 40.8,-109.66l-3.89 -61.36c-3.01,-47.37 5.46,-51.92 -32.15,-78.53l-79.85 -56.51c-6.26,-4.43 -9.27,-16.55 -3.48,-21.6l81.19 -70.7c21.36,-18.83 13.87,-27.62 12.05,-58.67 -1.39,-23.77 -3.05,-36.18 -5.03,-59.91 -2.21,-26.4 3.38,-23.96 -18.84,-36.29l-74.8 -41.47c-5.06,-2.8 -7.49,-10.48 -2.81,-13.67l86.05 -58.73c4.67,-3.19 10.89,-3.44 16,-0.69l54.48 29.34c42.41,22.83 25.66,16.14 77.97,16.06l296.81 -0.47c26.41,-0.04 21.62,0.49 43.85,-13.89l14.08 -9.12c2.48,-1.6 5.79,-1.73 8.51,-0.34l49.42 25.24c2.72,1.38 2.55,4.03 0.19,5.73 -30.13,21.76 -34.89,19.48 -31.43,54.26l3.66 36.85c4.3,43.21 -0.89,31.62 34.88,53.02z"/>
    <path class="fil3" d="M561.79 421.71l140.09 112.66c7.71,6.2 5.08,20.34 -4.39,27.97l-152.32 122.71c-23.41,21.98 -21.04,44.18 -0.75,66.54l83.27 66.96c10.99,1.02 21.98,1.86 32.97,2.52 60.21,3.6 120.43,1.9 180.67,-3.78l210.89 -186.27c11.36,-19.58 7.49,-45.32 -3.1,-62.9l-151.53 -108.49c-10.82,-7.74 -16.08,-28.7 -6.04,-37.44l126.22 -109.92c18.58,-18.37 17.86,-50.76 -4.09,-64.2l-140.87 -77.98c-10.5,-5.81 -15.54,-21.71 -5.84,-28.32l178.48 -121.59c9.71,-6.61 22.59,-7.13 33.2,-1.43l125.03 67.22c34.47,18.53 37.01,20.16 76.75,23.73 51.82,4.66 109.49,4.13 161.74,-0.35 19.93,-1.7 25.01,0.05 41.7,-10.73l62.4 -40.32c6.02,-3.88 14,-4.19 20.57,-0.84l119.39 60.88c6.57,3.35 6.84,10.99 1.13,15.11l-79.91 57.59c-0.74,5.96 -1.28,11.94 -1.63,17.94l182.57 109.18c11.02,6.59 13.5,21.63 5.82,29.74l-141.9 149.73c-7.68,8.11 -20.49,8.38 -31.43,1.65l-205.01 -125.94c-10.94,-6.72 -18.28,-25.09 -10.08,-32.74l133.05 -123.99c-0.41,-6.31 -0.97,-12.6 -1.7,-18.87l-45.95 -24.13c-63.11,-5.59 -134.17,-4.7 -201.13,-1.18 -43,2.27 -44.41,-3.42 -78.21,22.26l-47.15 35.84c-25.37,19.34 -18.23,56.02 3.87,68.9l141.3 97.09c10.97,7.54 11.52,24.86 1.87,34.01l-131.77 124.82c-16.77,24.89 -16.45,48.57 2.93,69.53l271.27 182.66c17.08,11.49 17.65,38.27 2.89,52.6l-272.73 264.95c-14.77,14.33 -36.37,14.86 -53.13,2.92l-279.1 -198.88c-81.17,-7.16 -152.45,-3.05 -238.75,3.22l-167.61 134.91c-11.95,9.62 -26.48,9.94 -36.06,1.96l-179.65 -149.54c-9.59,-7.98 -10.38,-29.8 1.96,-38.87l200.21 -147.19c19.21,-27.57 18.9,-54.97 -2.08,-82.17l-78.3 -65.18c-7.59,-6.32 -8.22,-23.61 1.55,-30.79l179.85 -132.22c9.78,-7.19 20.86,-7.75 28.57,-1.55zm1065.19 -138.95l65.53 39.19c5.25,3.13 6.43,10.29 2.77,14.15l-67.54 71.27c-3.65,3.86 -9.75,3.99 -14.96,0.79l-97.58 -59.95c-5.2,-3.19 -8.7,-11.94 -4.8,-15.58l40.81 -38.03c24.48,-22.81 22.12,-20.22 18.94,-54.53l-4.25 -45.97c-2.12,-22.78 3.06,-22.5 -16.15,-32.6 -19.21,-10.11 -19.76,-11.83 -41.51,-11.79l-310.91 0.49c-33.13,0.05 -30.74,-6.29 -52.75,17.2l-31.83 33.99c-18.26,13.9 -12.23,24.8 -10.22,49.21l3.61 43.65c2.45,29.75 -1.96,36.16 22.12,52.71l93.8 64.45c6.33,4.35 6.59,14.27 1.08,19.62l-65.57 63.69c-38.36,37.27 -32.43,36.52 -28.98,89.94l3.91 60.45c5.04,78.03 10.8,64.39 73.62,107.56l112.74 77.47c9.79,6.72 9.64,22.51 1.12,30.78l-157.33 152.84c-8.52,8.27 -20.96,8.55 -30.65,1.68l-130.79 -92.54c-26.32,-18.63 -33.47,-36.22 -107.85,-37.84l-296.83 0c-63.89,0 -42.75,-8.97 -84.88,24.97l-63.84 51.43c-4.78,3.85 -10.43,3.75 -14.45,0.78l-82.05 -60.71c-4.01,-2.97 -4.19,-12 0.79,-15.58l70.19 -50.57c36.95,-27.15 29.48,-8.91 37.39,-54l17.16 -97.85c7.55,-43.08 16.72,-50.01 -18.71,-79.51l-33 -27.46c-4.38,-3.65 -4.74,-13.62 0.9,-17.77l103.75 -76.27c5.64,-4.15 12.03,-4.47 16.48,-0.89l80.81 64.99c4.45,3.57 2.98,11.8 -2.53,16.13l-75.47 59.31c-33.3,26.18 -30.3,16.72 -38.64,58.47l-19.52 97.71c-5.01,35.8 -9.02,36.68 16.88,58.76 28.03,23.89 29.8,22.25 66.56,22.25l316.59 0c63.87,0 57.03,-8.4 104.24,-49.52l64.14 -55.85c54.53,-54.07 36.17,-45.42 40.8,-109.67l-3.9 -61.36c-3.01,-47.37 5.47,-51.92 -32.14,-78.53l-79.85 -56.5c-6.26,-4.44 -9.27,-16.56 -3.48,-21.6l81.19 -70.71c21.35,-18.83 13.87,-27.61 12.05,-58.67 -1.39,-23.77 -3.05,-36.18 -5.03,-59.91 -2.21,-26.4 3.38,-23.96 -18.84,-36.28l-74.8 -41.48c-5.06,-2.8 -7.49,-10.48 -2.82,-13.67l86.06 -58.73c4.67,-3.18 10.89,-3.43 16,-0.68l54.48 29.33c42.4,22.83 25.66,16.14 77.97,16.06l296.8 -0.47c26.41,-0.04 21.63,0.5 43.86,-13.89l14.08 -9.11c2.48,-1.61 5.79,-1.74 8.5,-0.35l49.43 25.24c2.72,1.39 2.55,4.03 0.19,5.74 -30.13,21.75 -34.89,19.48 -31.43,54.25l3.66 36.86c4.3,43.2 -0.89,31.62 34.88,53.01z"/>
    <path class="fil4" d="M557.96 406.91l140.09 112.67c7.71,6.19 5.08,20.34 -4.39,27.96l-152.32 122.72c-23.41,21.98 -21.04,44.18 -0.75,66.53l83.26 66.97c10.99,1.02 21.99,1.85 32.98,2.51 60.21,3.6 120.43,1.91 180.67,-3.78l210.89 -186.27c11.36,-19.57 7.48,-45.32 -3.1,-62.89l-151.54 -108.5c-10.81,-7.74 -16.07,-28.7 -6.04,-37.44l126.23 -109.92c18.58,-18.36 17.86,-50.76 -4.09,-64.19l-140.87 -77.99c-10.5,-5.81 -15.54,-21.7 -5.84,-28.31l178.48 -121.6c9.7,-6.61 22.59,-7.12 33.2,-1.42l125.03 67.22c34.47,18.52 37.01,20.15 76.75,23.72 51.81,4.66 109.49,4.13 161.74,-0.34 19.93,-1.71 25.01,0.05 41.7,-10.74l62.4 -40.31c6.01,-3.89 14,-4.19 20.57,-0.84l119.39 60.87c6.57,3.35 6.84,10.99 1.12,15.11l-79.9 57.6c-0.74,5.95 -1.28,11.93 -1.63,17.94l182.57 109.18c11.02,6.59 13.5,21.62 5.82,29.73l-141.9 149.74c-7.68,8.1 -20.49,8.37 -31.43,1.65l-205.01 -125.94c-10.94,-6.72 -18.28,-25.1 -10.08,-32.74l133.05 -123.99c-0.41,-6.31 -0.98,-12.6 -1.7,-18.88l-45.95 -24.12c-63.11,-5.6 -134.17,-4.71 -201.13,-1.18 -43,2.26 -44.42,-3.43 -78.21,22.26l-47.15 35.83c-25.37,19.34 -18.23,56.02 3.87,68.9l141.3 97.1c10.97,7.53 11.52,24.86 1.87,34l-131.78 124.83c-16.76,24.88 -16.44,48.56 2.94,69.53l271.27 182.65c17.07,11.5 17.65,38.27 2.89,52.61l-272.74 264.94c-14.76,14.34 -36.36,14.87 -53.12,2.92l-279.1 -198.88c-81.17,-7.16 -152.46,-3.05 -238.75,3.23l-167.61 134.9c-11.95,9.62 -26.48,9.94 -36.06,1.96l-179.65 -149.53c-9.59,-7.98 -10.38,-29.8 1.96,-38.88l200.21 -147.18c19.21,-27.58 18.89,-54.98 -2.08,-82.18l-78.31 -65.18c-7.59,-6.32 -8.21,-23.6 1.56,-30.79l179.85 -132.22c9.78,-7.18 20.86,-7.75 28.57,-1.55zm1065.19 -138.95l65.53 39.19c5.25,3.14 6.43,10.3 2.77,14.16l-67.54 71.27c-3.66,3.86 -9.75,3.98 -14.96,0.78l-97.58 -59.94c-5.21,-3.2 -8.7,-11.95 -4.8,-15.59l40.81 -38.03c24.48,-22.81 22.12,-20.22 18.94,-54.53l-4.26 -45.97c-2.11,-22.77 3.07,-22.49 -16.14,-32.6 -19.22,-10.11 -19.76,-11.82 -41.51,-11.79l-310.91 0.49c-33.13,0.05 -30.74,-6.29 -52.75,17.21l-31.83 33.99c-18.26,13.9 -12.23,24.79 -10.22,49.21l3.61 43.64c2.45,29.75 -1.97,36.16 22.11,52.71l93.81 64.46c6.33,4.35 6.59,14.27 1.08,19.61l-65.57 63.7c-38.36,37.26 -32.43,36.51 -28.98,89.94l3.91 60.45c5.04,78.03 10.8,64.39 73.61,107.55l112.75 77.48c9.79,6.72 9.63,22.51 1.12,30.78l-157.33 152.83c-8.52,8.28 -20.96,8.55 -30.65,1.69l-130.79 -92.55c-26.32,-18.62 -33.48,-36.21 -107.85,-37.84l-296.83 0c-63.89,0 -42.75,-8.97 -84.88,24.97l-63.84 51.43c-4.78,3.85 -10.43,3.76 -14.45,0.78l-82.05 -60.71c-4.01,-2.97 -4.2,-11.99 0.79,-15.58l70.19 -50.56c36.94,-27.16 29.48,-8.91 37.39,-54l17.16 -97.86c7.55,-43.08 16.72,-50.01 -18.71,-79.5l-33 -27.47c-4.38,-3.65 -4.74,-13.62 0.9,-17.76l103.74 -76.27c5.65,-4.15 12.04,-4.48 16.49,-0.9l80.81 64.99c4.44,3.57 2.98,11.81 -2.53,16.13l-75.47 59.32c-33.31,26.18 -30.3,16.71 -38.65,58.46l-19.51 97.72c-5.01,35.8 -9.02,36.68 16.88,58.75 28.02,23.89 29.8,22.25 66.56,22.25l316.59 0c63.87,0 57.02,-8.4 104.24,-49.52l64.14 -55.85c54.53,-54.06 36.17,-45.42 40.8,-109.66l-3.9 -61.36c-3.01,-47.38 5.47,-51.93 -32.14,-78.54l-79.85 -56.5c-6.27,-4.43 -9.28,-16.55 -3.48,-21.6l81.19 -70.7c21.35,-18.84 13.87,-27.62 12.05,-58.68 -1.39,-23.76 -3.05,-36.18 -5.03,-59.9 -2.21,-26.41 3.38,-23.97 -18.84,-36.29l-74.8 -41.47c-5.06,-2.81 -7.49,-10.48 -2.82,-13.68l86.06 -58.72c4.67,-3.19 10.89,-3.44 16,-0.69l54.48 29.33c42.4,22.84 25.66,16.15 77.97,16.06l296.8 -0.46c26.41,-0.04 21.63,0.49 43.86,-13.9l14.08 -9.11c2.48,-1.61 5.79,-1.73 8.5,-0.35l49.43 25.24c2.71,1.39 2.55,4.03 0.19,5.74 -30.14,21.75 -34.89,19.48 -31.43,54.26l3.66 36.85c4.3,43.21 -0.9,31.62 34.88,53.01z"/>
   </g>
   <g>
    <g>
     <path class="fil5" d="M1603.27 936.72l321.37 207.12c17.3,11.15 15.79,36.58 2.89,52.61l-219.12 272.24c-12.9,16.03 -36.41,14.92 -53.13,2.92l-329.48 -236.45c-16.72,-12 -23.78,-43.25 -9.34,-57.93l233.68 -237.59c14.45,-14.68 35.83,-14.07 53.13,-2.92z"/>
     <path class="fil3" d="M1601.16 928.49l321.37 207.12c17.3,11.15 15.79,36.58 2.89,52.61l-219.12 272.24c-12.9,16.03 -36.41,14.93 -53.13,2.92l-329.48 -236.44c-16.72,-12.01 -23.79,-43.26 -9.35,-57.94l233.69 -237.59c14.44,-14.68 35.82,-14.07 53.13,-2.92z"/>
    </g>
    <path class="fil6" d="M1599.98 892.65l321.37 207.12c17.31,11.15 15.79,36.58 2.89,52.61l-219.12 272.24c-12.9,16.03 -36.4,14.92 -53.12,2.92l-329.49 -236.45c-16.72,-12 -23.78,-43.25 -9.34,-57.93l233.69 -237.59c14.44,-14.69 35.82,-14.07 53.12,-2.92z"/>
   </g>
   <g>
    <path class="fil0" d="M749.8 1006.95l155.32 126.75c9.79,7.99 10.86,23.54 1.77,32.31l-179.32 173.09c-9.08,8.77 -23.14,10.14 -32.62,1.79l-148.42 -130.67c-9.48,-8.35 -14.95,-26.91 -5.74,-35.57l176.39 -165.9c9.21,-8.67 22.83,-9.79 32.62,-1.8z"/>
    <path class="fil7" d="M747.74 946.12l155.32 126.74c9.79,7.99 10.86,23.54 1.77,32.31l-179.32 173.09c-9.08,8.77 -23.14,10.15 -32.62,1.8l-148.42 -130.68c-9.48,-8.34 -14.95,-26.91 -5.74,-35.57l176.38 -165.9c9.22,-8.66 22.83,-9.78 32.63,-1.79z"/>
   </g>
   <g>
    <path class="fil0" d="M1440.37 491.27l141.52 81.74c9.48,5.48 9.6,20.64 1.54,28.01l-111.32 101.63c-8.06,7.36 -19.03,7.41 -28.28,1.56l-142.72 -90.29c-9.24,-5.85 -13.62,-24.1 -4.97,-30.84l115.95 -90.25c8.65,-6.74 18.8,-7.03 28.28,-1.56z"/>
    <path class="fil8" d="M1432.21 462.96l141.52 81.74c9.48,5.47 9.61,20.64 1.54,28l-111.31 101.64c-8.07,7.36 -19.04,7.4 -28.28,1.55l-142.72 -90.28c-9.25,-5.85 -13.63,-24.11 -4.98,-30.84l115.95 -90.26c8.66,-6.73 18.8,-7.03 28.28,-1.55z"/>
   </g>
   <g>
    <path class="fil0" d="M806.86 568.67l141.52 81.74c9.48,5.48 9.6,20.64 1.54,28.01l-111.32 101.63c-8.06,7.36 -19.03,7.41 -28.28,1.56l-142.72 -90.29c-9.24,-5.85 -13.62,-24.1 -4.97,-30.84l115.95 -90.25c8.65,-6.74 18.8,-7.03 28.28,-1.56z"/>
    <path class="fil8" d="M798.71 540.36l141.51 81.74c9.48,5.47 9.61,20.64 1.54,28l-111.31 101.64c-8.07,7.36 -19.04,7.4 -28.28,1.55l-142.72 -90.28c-9.25,-5.85 -13.63,-24.11 -4.98,-30.84l115.95 -90.26c8.66,-6.73 18.8,-7.03 28.29,-1.55z"/>
   </g>
  </g>
 </g>
</svg>
