<svg xmlns="http://www.w3.org/2000/svg" viewBox="0 0 207.69 165.12"><defs><style>.cls-1{fill:#fff;}</style></defs><g id="Camada_2" data-name="Camada 2"><g id="Camada_2-2" data-name="Camada 2"><path class="cls-1" d="M164.65,45.24c-32.8,21.2-71,31.58-109.68,33C110.3,71.48,164.22,49,202.14,7.27l-1.23-1.82C176.37,10.82,153.09,21.07,129,28.32,90.44,41.72,50.26,51.39,13.26,69c-24.36,10.13,8.5,26.21,17.83,34.81,8.61,5.63,19.16,12.37,15.75,24.34-5.14,16.86-13.14,32-32.88,37,16.71-3.55,43.63-37.21,23.72-53-9.16-7.29-51.8-29.52-32.91-42.27A134.77,134.77,0,0,1,32.05,55.58C82.16,38.07,132.61,21.47,182.72,3.91,204.46-4.37,218.23.13,197.35,21,187.51,29.48,176.39,39,164.65,45.24Z"/><path class="cls-1" d="M110.65,114.45c-19,3.16-41-.36-57.59-7.46,26.31,6,52.88,8.15,78.22-4.06,5.2-2.89,16-9.46,9.7-16.38-4.25-4.71-8.26-3.83-9.9-3.07-23.33,13.84-49.8,21-75.17,15.51,26.77.27,48.68-3.53,70.33-16.49,7.79-4.56,7.47-3.36,12-1.27,16.66,7.8,4.43,23.62-7.83,27.58C121.39,112.07,116.45,113.48,110.65,114.45Z"/><path class="cls-1" d="M75.41,112.73c3.51.35,2.86,7.42,1.1,9.49-4.9,7.71-16.87,3.81-24.42,3.35a43.57,43.57,0,0,0,16.43,4c-1.93,14.41-10,21.27-16.91,4.92l-.41.7c.7,3.95,4.1,7,1.73,10.89-4.78,9.54-6.42,1-7.7-3.76-.18,2.35.69,5,0,7-1.52,2.26-3,2.92-3.64-.07-.23-.73,1-15.85-.42-2.15-1.29,6.23,2.47,8.57,4.74,2.18,2.47,5.47,5.74,3.27,9.13-5.79C64.63,151,69.81,139.72,69,129.52c8.62-.09,15-10.93,8.64-17.81-.07.08-2.39.81-2.22,1"/><path class="cls-1" d="M55.48,78.21l-22.57.66C39.82,86.8,47.15,94,56.36,99.22"/></g></g></svg>